<?xml version="1.0" encoding="UTF-8" standalone="no"?>
<!-- Created with Inkscape (http://www.inkscape.org/) -->

<svg
   version="1.1"
   id="svg2"
   width="48"
   height="48"
   viewBox="0 0 48 48"
   sodipodi:docname="ear_005-4.svg"
   inkscape:export-filename="ear_005-3.svg"
   inkscape:export-xdpi="19.030001"
   inkscape:export-ydpi="19.030001"
   inkscape:version="1.2.1 (9c6d41e410, 2022-07-14)"
   xmlns:inkscape="http://www.inkscape.org/namespaces/inkscape"
   xmlns:sodipodi="http://sodipodi.sourceforge.net/DTD/sodipodi-0.dtd"
   xmlns="http://www.w3.org/2000/svg"
   xmlns:svg="http://www.w3.org/2000/svg">
  <defs
     id="defs6" />
  <sodipodi:namedview
     id="namedview4"
     pagecolor="#ffffff"
     bordercolor="#000000"
     borderopacity="0.25"
     inkscape:showpageshadow="2"
     inkscape:pageopacity="0.0"
     inkscape:pagecheckerboard="0"
     inkscape:deskcolor="#d1d1d1"
     showgrid="false"
     inkscape:zoom="5.8626008"
     inkscape:cx="146.09557"
     inkscape:cy="64.050071"
     inkscape:window-width="3440"
     inkscape:window-height="1377"
     inkscape:window-x="1912"
     inkscape:window-y="-8"
     inkscape:window-maximized="1"
     inkscape:current-layer="g8" />
  <g
     id="g8"
     inkscape:groupmode="layer"
     inkscape:label="ink_ext_XXXXXX"
     transform="matrix(1.3333333,0,0,-1.3333333,0,426.66667)">
    <path
       d="m 16.505205,303.65473 c -0.957074,0.7872 -1.94718,1.37174 -3.007742,1.75222 -1.060174,0.38144 -2.182465,0.55514 -3.385073,0.55446 -0.3619717,0 -0.7311637,-0.0154 -1.1092273,-0.0452 -1.7924143,-0.13901 -3.2644019,-0.70071 -4.4181018,-1.50719 -1.7350358,-1.21238 -2.743169,-2.9292 -3.3250678,-4.53395 -0.5812814,-1.61145 -0.74681683,-3.12136 -0.74827481,-4.05344 0,-0.17014 0.005551,-0.32184 0.0165984,-0.45756 0.0117199,-0.1368 0.0260753,-0.25297 0.0574777,-0.38076 0.10738465,-0.42749 0.55851441,-0.69126 1.00784961,-0.58903 0.4490052,0.10208 0.7259637,0.53191 0.6187433,0.95941 h -2.297e-4 c -2.727e-4,0 -0.00252,0.0103 -0.00583,0.0337 -0.010996,0.0737 -0.022711,0.23178 -0.022538,0.43419 -0.00472,1.00915 0.2706135,3.1178 1.2877792,4.92523 0.5073053,0.90761 1.1897606,1.74211 2.1015434,2.37761 0.9134767,0.63469 2.0578742,1.0846 3.5676022,1.20528 0.3368493,0.0264 0.6601757,0.04 0.9716736,0.04 1.037679,-8.3e-4 1.940332,-0.14584 2.794593,-0.4521 0.85347,-0.30697 1.666574,-0.77928 2.505776,-1.46823 0.867928,-0.71286 1.546363,-1.61746 2.044208,-2.63332 0.700687,-1.43077 1.035167,-2.88738 1.035455,-4.33346 -5.75e-4,-1.86961 -0.560148,-3.72734 -1.656326,-5.47846 -0.736287,-1.18451 -1.979637,-2.34565 -3.129303,-3.63562 -0.573598,-0.64755 -1.123309,-1.33271 -1.560589,-2.09507 -0.43649,-0.76143 -0.758926,-1.60599 -0.852466,-2.54088 -0.100258,-1.03212 -0.21869,-2.09183 -0.555037,-2.86096 -0.166379,-0.38641 -0.375824,-0.6947 -0.64638,-0.93051 -0.2726951,-0.23496 -0.6110086,-0.4147 -1.1180411,-0.51945 -0.361799,-0.0734 -0.7412694,-0.11308 -1.116304,-0.11308 -0.5582812,-10e-5 -1.1048628,0.0884 -1.5776863,0.26961 -0.4744028,0.18167 -0.8740569,0.44834 -1.1851096,0.82241 -0.6780625,0.80596 -0.9511021,2.01361 -0.947628,3.23491 -2.154e-4,0.33803 0.019523,0.67443 0.053675,0.99885 0.046253,0.43707 -0.2888449,0.82738 -0.7482749,0.87126 -0.4593152,0.0439 -0.8690037,-0.27504 -0.9151563,-0.71244 -0.039592,-0.37219 -0.062532,-0.7609 -0.062532,-1.15767 0.00337,-1.42166 0.2861604,-2.98037 1.3078624,-4.22186 0.5092145,-0.61463 1.1699645,-1.04529 1.8751157,-1.31335 0.7066012,-0.26916 1.4594267,-0.38342 2.1997343,-0.38368 0.4977876,0 0.9908092,0.0519 1.4649822,0.14799 0.7635776,0.15311 1.4067706,0.47139 1.8984426,0.90238 0.74183,0.64907 1.124157,1.49576 1.35103,2.33429 0.226657,0.84297 0.307018,1.70638 0.3858,2.47951 0.06898,0.682 0.30119,1.30999 0.6562,1.93043 0.530087,0.92971 1.345273,1.82569 2.208462,2.74164 0.861323,0.91807 1.769446,1.85435 2.449173,2.93596 1.236143,1.97126 1.892903,4.11858 1.892616,6.29379 0,1.68157 -0.392908,3.37556 -1.192216,5.00642 -0.582686,1.18887 -1.394913,2.28495 -2.467261,3.16577 z M 12.35262,290.01652 c -0.960921,-0.98447 -2.030398,-2.04187 -2.6420092,-3.50508 -0.1696807,-0.40884 0.040985,-0.87137 0.4705272,-1.03302 0.100832,-0.0378 0.204736,-0.0558 0.306846,-0.0558 0.333203,-10e-5 0.648132,0.19069 0.777832,0.5037 0.450846,1.09629 1.334822,2.01602 2.308578,3.00295 0.96316,0.98679 2.018813,2.0424 2.592741,3.5042 0.379413,0.9672 0.585126,2.12273 0.586418,3.31201 -9.85e-4,1.12464 -0.185328,2.2788 -0.629484,3.32049 -0.44229,1.03744 -1.163505,1.97908 -2.237719,2.56238 -1.127744,0.61186 -2.325128,0.94848 -3.515118,0.94861 -0.9716164,6.9e-4 -1.9347197,-0.2281 -2.8138726,-0.69441 -0.8803301,-0.46576 -1.6733651,-1.16346 -2.3397568,-2.07721 -0.9564854,-1.31584 -1.5899746,-2.93454 -1.6394432,-4.53656 -0.00173,-0.0553 -0.00245,-0.11152 -0.00245,-0.16563 -5.742e-4,-0.47356 0.061226,-0.92388 0.1978317,-1.35985 0.1361465,-0.4368 0.3418306,-0.85226 0.6070177,-1.28181 0.2335479,-0.37912 0.745978,-0.50608 1.1442253,-0.28331 0.3982473,0.22263 0.5313792,0.71054 0.2973719,1.08952 -0.2185895,0.35493 -0.357765,0.64739 -0.4455196,0.92879 -0.018906,0.0613 -0.035386,0.12259 -0.050028,0.1845 0.9534564,-0.0725 1.8141628,-0.37064 2.4298799,-0.81892 0.3579804,-0.2598 0.6358434,-0.56538 0.8265548,-0.9113 0.190209,-0.34658 0.2976447,-0.73472 0.2984342,-1.18982 0,-0.31776 -0.054062,-0.66899 -0.17983,-1.05645 l -0.00292,-0.01 c -0.1612255,-0.51127 -0.3944432,-0.85431 -0.68547,-1.16386 -0.4330161,-0.46515 -1.0371771,-0.81894 -1.6398883,-1.35467 -0.297817,-0.26912 -0.5919303,-0.59663 -0.8049643,-1.01486 -0.214326,-0.41701 -0.3348826,-0.91386 -0.3334327,-1.46949 0,-0.14239 0.00752,-0.29027 0.02317,-0.44418 0.041544,-0.41145 0.4056979,-0.71965 0.831206,-0.71965 0.026859,0 0.053833,9.4e-4 0.081195,0.004 0.4596597,0.0423 0.7963368,0.43129 0.7519786,0.86869 -0.010595,0.10437 -0.015145,0.20116 -0.015475,0.29134 0.00561,0.46754 0.1107519,0.71642 0.2807771,0.96269 0.2508175,0.36811 0.7823115,0.71634 1.4237536,1.22361 0.6304601,0.50273 1.3409371,1.22841 1.6873757,2.3556 0.170758,0.52495 0.254808,1.0369 0.254694,1.52726 9.62e-4,0.70234 -0.174619,1.3593 -0.489649,1.92962 -0.4729954,0.85786 -1.244325,1.51155 -2.1502795,1.94396 -0.779225,0.37214 -1.6624836,0.58767 -2.5869996,0.64179 0.080476,0.46467 0.2205418,0.93713 0.4100331,1.39593 0.031338,0.0149 0.062346,0.031 0.092405,0.0501 l -1.723e-4,2.7e-4 c 0.51299,0.32391 1.0086387,0.45401 1.476366,0.45497 0.5870638,-5.5e-4 1.1452876,-0.21047 1.6101583,-0.60052 0.4634639,-0.39033 0.8254925,-0.96078 0.9796407,-1.67213 0.081309,-0.37639 0.4297723,-0.63551 0.8183723,-0.63551 0.05586,0 0.112546,0.006 0.16958,0.0166 0.452023,0.0888 0.742992,0.50977 0.649854,0.94041 -0.22324,1.03171 -0.763406,1.91499 -1.50944,2.54311 -0.7441265,0.62785 -1.7015594,1.00082 -2.7181653,1.00013 -0.083333,1.5e-4 -0.1669388,-0.003 -0.2507169,-0.008 0.4150144,0.44868 0.8575769,0.78693 1.3153129,1.02938 0.6339341,0.3347 1.3003402,0.49296 2.0012853,0.49378 0.856055,2.7e-4 1.770206,-0.24259 2.686984,-0.73978 0.671848,-0.36422 1.173166,-0.97786 1.517021,-1.77942 0.342118,-0.79718 0.507205,-1.76479 0.5062,-2.72023 0.0013,-1.00861 -0.183749,-2.00437 -0.481078,-2.75591 -0.415302,-1.07817 -1.27595,-1.98838 -2.247739,-2.97307 z m 5.796564,17.45603 c -1.495257,0.74565 -2.682018,0.95435 -2.73829,0.96501 -0.454349,0.0791 -0.889877,-0.2076 -0.972593,-0.64015 -0.08288,-0.43174 0.217183,-0.84611 0.670698,-0.92566 l 0.0012,-2.7e-4 h 2.87e-4 -2.87e-4 1.44e-4 c 0.07063,-0.0106 1.916014,-0.37214 3.683306,-1.67308 0.892475,-0.65491 1.767723,-1.54079 2.426349,-2.74839 0.657189,-1.20856 1.104791,-2.74525 1.106083,-4.74033 0,-0.85718 -0.08354,-1.79855 -0.271604,-2.83189 -0.07881,-0.43338 0.226241,-0.84543 0.681594,-0.92018 0.04794,-0.008 0.09618,-0.0121 0.143554,-0.0121 0.398936,-1.4e-4 0.752222,0.2732 0.822564,0.66066 0.202698,1.1152 0.296152,2.14786 0.296152,3.10344 0.0015,2.25871 -0.524547,4.09074 -1.331894,5.54161 -1.21059,2.18054 -3.025829,3.47737 -4.517211,4.22126 z m 2.380268,3.41806 c -1.884432,0.93986 -3.382274,1.20295 -3.438691,1.21348 -0.454204,0.0791 -0.889891,-0.20747 -0.972578,-0.64016 -0.08326,-0.43242 0.217772,-0.84679 0.671977,-0.92592 0.07853,-0.0115 2.491521,-0.47438 4.816233,-2.18477 1.164941,-0.85473 2.310501,-2.01381 3.171394,-3.59245 0.859314,-1.57961 1.441138,-3.58522 1.442142,-6.17124 2.88e-4,-1.11111 -0.108239,-2.32937 -0.350989,-3.66393 -0.07881,-0.43337 0.226242,-0.84515 0.681307,-0.92045 0.04824,-0.008 0.09618,-0.0115 0.143554,-0.0115 0.399223,0 0.75251,0.27307 0.823282,0.66039 0.257105,1.41669 0.375106,2.72556 0.375106,3.93548 0.0015,2.85882 -0.662788,5.16536 -1.67757,6.99014 -1.52239,2.74129 -3.80418,4.37269 -5.685167,5.31092 z m 2.380411,3.41779 c -2.273607,1.13448 -4.082961,1.45168 -4.139234,1.46207 -0.454491,0.079 -0.889891,-0.20746 -0.972721,-0.64001 -0.08297,-0.43242 0.217915,-0.8468 0.672119,-0.92593 l 0.002,-5.5e-4 c 0.111542,-0.0175 3.077653,-0.58603 5.947296,-2.69577 1.437263,-1.05453 2.853135,-2.48694 3.916152,-4.43678 1.061724,-1.9508 1.777627,-4.42517 1.778633,-7.60215 0,-1.36504 -0.133362,-2.85963 -0.430375,-4.49541 -0.07881,-0.43325 0.226241,-0.84529 0.68102,-0.92005 0.04795,-0.008 0.09618,-0.0119 0.143554,-0.0119 0.399079,0 0.752366,0.27292 0.822707,0.66024 0.312373,1.71764 0.455066,3.30326 0.455354,4.76711 0.0012,3.45934 -0.801319,6.24025 -2.023537,8.43869 -1.833901,3.3019 -4.583103,5.26813 -6.852977,6.40043 z m 10.4012,-4.07175 c -2.145126,3.86237 -5.361452,6.16304 -8.020789,7.48995 -2.663069,1.32855 -4.783217,1.69987 -4.83992,1.71053 -0.454205,0.0789 -0.889604,-0.20746 -0.972578,-0.64015 -0.08312,-0.43242 0.217771,-0.84693 0.672263,-0.92592 h -2.87e-4 c 0,0 0,0 0.0035,-6.9e-4 0.14542,-0.0237 3.664789,-0.69768 7.079218,-3.20718 1.709441,-1.25434 3.395625,-2.96009 4.660766,-5.28098 1.263704,-2.32172 2.113832,-5.26513 2.115123,-9.03306 0,-1.61924 -0.158052,-3.3906 -0.510191,-5.32732 -0.07881,-0.43309 0.225955,-0.84501 0.681307,-0.92004 0.04824,-0.008 0.09618,-0.0118 0.143554,-0.0118 0.398937,0 0.752223,0.2732 0.822565,0.66025 0.367354,2.01886 0.534738,3.88082 0.534738,5.59887 0.0015,4.05985 -0.939848,7.31487 -2.369214,9.8875"
       style="fill:#100f0d;fill-opacity:1;fill-rule:nonzero;stroke:none;stroke-width:0.0140069"
       id="path12" />
  </g>
</svg>
